<svg class="svg-illustration svg-illustration--localized-peering" data-animation="" data-animation-options="type:localizedPeering;" version="1.1" xmlns="http://www.w3.org/2000/svg" xmlns:xlink="http://www.w3.org/1999/xlink" x="0px" y="0px" viewBox="0 0 512 432" style="enable-background:new 0 0 512 432;" xml:space="preserve">
	<g class="localized-peering__lines">
		<path data-animation-line="" style="stroke-dashoffset: 0px; stroke-dasharray: 91.178px;" class="localized-peering-st0" d="M364.7,178l79.3-45"></path>
		<path data-animation-line="" style="stroke-dashoffset: 0px; stroke-dasharray: 117.598px;" class="localized-peering-st0" d="M68,347l102.3-58"></path>
		<path data-animation-line="" style="stroke-dashoffset: 0px; stroke-dasharray: 117.597px;" class="localized-peering-st0" d="M452,345l-102.3-58"></path>
		<path data-animation-line="" style="stroke-dashoffset: 0px; stroke-dasharray: 93.088px;" class="localized-peering-st0" d="M152.9,176.4L72.2,130"></path>
	</g>
	<g class="localized-peering__center">
		<path class="localized-peering-st1" style="stroke-dashoffset: 0px; stroke-dasharray: 693.352px;" data-animation-circle="" d="M160.7,171.5c53.7-31,140.7-31.1,194.4-0.1s53.7,81.1,0,112.1s-140.7,31.1-194.4,0.1
		S107,202.5,160.7,171.5z"></path>
		<g class="localized-peering__user animation-element" data-animation-user="" style="transform: translateY(0px); opacity: 1;">
			<rect x="170.9" y="238.6" class="localized-peering-st2" width="176" height="80.1"></rect>
			<path class="localized-peering-st3" d="M346.9,237.6c0,0,0,0.1,0,0.2c0,0.4,0,0.8,0,1.2h-0.2c-0.9,3.4-3.1,6.2-6.2,7.9
			l-63.6,38.2c-9.9,5.6-24.1,5.6-35.8-1.3l-64.4-37.2c-4.7-2.7-5.7-5.8-5.8-7.6l0,0c0-0.1,0-0.1,0-0.1c0-0.2,0-0.4,0-0.6
			c0.4-48.6,40.1-87.6,88.7-87.2C307.4,151.4,346.1,189.8,346.9,237.6L346.9,237.6z M302.7,165.9c0,0.3,0,0.6,0,0.9
			c0,0.3,0,0.6,0,0.9c0,0.3,0,0.6,0,0.9c0,0.3,0,0.6,0,0.9c0,0.3,0,0.6,0,0.9c0,0.3,0,0.6,0,0.9c0,0.3,0,0.6,0,0.9
			c0,0.3,0,0.6,0,0.9c0,0.3,0,0.6,0,0.9c0,0.3,0,0.6,0,0.9c0,0.3,0,0.6,0,0.9c0,0.2,0,0.4,0,0.6c0.2,6-3.4,12-10.8,16.7l-74.5,59.9
			l0.3-76.6l0,0c0-0.2,0-0.4,0-0.6c0-0.3,0-0.6,0-0.9s0-0.6,0-0.9c0-0.3,0-0.6,0-0.9c0-0.3,0-0.6,0-0.9c0-0.3,0-0.6,0-0.9
			c0-0.3,0-0.6,0-0.9c0-0.3,0-0.6,0-0.9c0-0.3,0-0.6,0-0.9c0-0.3,0-0.6,0-0.9c0-0.3,0-0.6,0-0.9c0-0.3,0-0.6,0-0.9
			c-0.3-6.4,3.9-12.9,12.4-18c16.6-9.6,43.5-9.6,60.1-0.1C298.8,152.9,303,159.4,302.7,165.9z"></path>
			<path class="localized-peering-st4" d="M302.7,165.9c0,0.3,0,0.6,0,0.9c0,0.3,0,0.6,0,0.9c0,0.3,0,0.6,0,0.9c0,0.3,0,0.6,0,0.9
			c0,0.3,0,0.6,0,0.9c0,0.3,0,0.6,0,0.9c0,0.3,0,0.6,0,0.9c0,0.3,0,0.6,0,0.9c0,0.3,0,0.6,0,0.9c0,0.3,0,0.6,0,0.9
			c0,0.3,0,0.6,0,0.9c0,0.2,0,0.4,0,0.6c0.2,6-3.4,12-10.8,16.7l-74.5,59.9l0.3-76.6l0,0c0-0.2,0-0.4,0-0.6c0-0.3,0-0.6,0-0.9
			s0-0.6,0-0.9c0-0.3,0-0.6,0-0.9c0-0.3,0-0.6,0-0.9c0-0.3,0-0.6,0-0.9c0-0.3,0-0.6,0-0.9c0-0.3,0-0.6,0-0.9c0-0.3,0-0.6,0-0.9
			c0-0.3,0-0.6,0-0.9c0-0.3,0-0.6,0-0.9c0-0.3,0-0.6,0-0.9c-0.3-6.4,3.9-12.9,12.4-18c16.6-9.6,43.5-9.6,60.1-0.1
			C298.8,152.9,303,159.4,302.7,165.9z"></path>
			<polygon class="localized-peering-st5" points="256.3,187.2 233.1,179.5 235.6,196.9 202.4,260.5 227.4,274.8 243,200.5		"></polygon>
			<path class="localized-peering-st6" d="M225.3,196.8l17.9-7.9l9.3,18.6l0.7-20.7l-15.7-4.3L225.3,196.8z"></path>
			<path class="localized-peering-st7" d="M346.9,238.2c0,0.4,0,0.8,0,1.2h-0.3c-0.5,1.9-2,5.4-6.2,7.9l-63.6,38.2c-9.9,5.6-24.1,5.6-35.7-1.3
			l-64.4-37.2c-4.7-2.7-5.7-5.8-5.8-7.6h0c0-0.1,0-0.1,0-0.2c0-0.2,0-0.4,0-0.6c0.3-33.7,19.5-62.9,47.5-77.4c-0.5,1.7-1,5.2-1,5.2
			l0,86.6l74.5-59.8c7.4-4.8,10.7-10.4,10.7-13.1s0-13.6,0-13.6s0.1-2.4-0.2-3.5c26.2,14.9,44,42.9,44.5,75.1h0
			C346.9,237.9,346.9,238,346.9,238.2z"></path>
			<path class="localized-peering-st8" d="M302.7,180.3c0.2,6.4-3.9,12.9-12.4,17.7c-9.7,5.6-24.5,9.5-38.1,9.7l-7.9-23.1
			l-19.1,12.2c-4.1-4.2-7.7-9.9-7.5-16.5c0-0.2,0-17.7,0-18.2c-0.1-6.4,4-12.7,12.4-17.6c16.6-9.6,43.5-9.6,60.1-0.1
			c8.4,4.9,12.5,11.2,12.4,17.6C302.7,162.4,302.7,180,302.7,180.3z"></path>
			<circle class="localized-peering-st9" cx="259.7" cy="134.7" r="52.8"></circle>
		</g>
	</g>
	<g class="localized-peering__blocks">
		<g class="localized-peering__block	animation-element" data-animation-block="" style="transform: translateY(0px); opacity: 1;">
			<polygon class="localized-peering-st10" points="422,117 422,162.4 506.9,162.4 506.9,117			"></polygon>
			<path id="Kształt_992_kopia_10" class="localized-peering-st11" d="M506.8,120.7L506.8,120.7c0,0.5-0.3,0.8-0.7,1c-0.4,0.3-39.6,23.3-40,23.5
			c-1,0.5-2.3,0.5-3.3,0c-0.4-0.3-39.7-23.3-40.1-23.5c-0.4-0.2-0.7-0.5-0.7-0.9v-0.1H422v-72l84.9,0.1L506.8,120.7L506.8,120.7z"></path>
			<polygon class="localized-peering-st16" points="422,365.1 422,410.5 506.9,410.5 506.9,365.1			"></polygon>
			<polygon class="localized-peering-st13" points="5,116 5,161.4 90,161.4 90,116		"></polygon>
			<path id="Kształt_990_kopia_14_1_" class="localized-peering-st12" d="M464.3,25.1c-0.6,0-1.2,0.1-1.7,0.4c-0.3,0.3-39.5,22.9-39.9,23
			c-0.4,0.2-0.7,0.5-0.7,0.9l0,0c0,0.4,0.3,0.8,0.7,0.9c0.4,0.3,39.6,22.9,40,23c1,0.5,2.3,0.5,3.3,0c0.4-0.3,39.6-22.9,40-23
			c0.4-0.2,0.7-0.5,0.7-0.9l0,0c0-0.4-0.3-0.8-0.7-0.9c-0.4-0.3-39.6-22.9-40-23C465.5,25.2,464.9,25.1,464.3,25.1"></path>
		</g>
		<g class="localized-peering__block	animation-element" data-animation-block="" style="transform: translateY(0px); opacity: 1;">
			<path class="localized-peering-st14" d="M89.9,119.7L89.9,119.7c0,0.5-0.3,0.8-0.7,1c-0.4,0.3-39.6,23.3-40.1,23.5
			c-1,0.5-2.3,0.5-3.3,0c-0.4-0.3-39.7-23.3-40.1-23.5s-0.7-0.5-0.7-0.9v-0.1H5v-72l85,0.1L89.9,119.7L89.9,119.7z"></path>
			<path class="localized-peering-st15" d="M47.3,23.9c-0.6,0-1.2,0.1-1.7,0.4c-0.3,0.3-39.6,22.9-40,23.1
			C5.3,47.6,5,47.9,5,48.3l0,0c0,0.4,0.3,0.8,0.7,0.9c0.4,0.3,39.6,22.9,40.1,23.1c1,0.5,2.3,0.5,3.3,0c0.4-0.3,39.6-22.9,40.1-23.1
			c0.4-0.2,0.7-0.5,0.7-0.9l0,0c0-0.4-0.3-0.8-0.7-0.9C88.7,47.1,49.4,24.5,49,24.3C48.5,24.1,47.9,23.9,47.3,23.9"></path>
		</g>
		<g class="localized-peering__block	animation-element" data-animation-block="" style="transform: translateY(0px); opacity: 1;">
			<path class="localized-peering-st17" d="M506.8,368.8L506.8,368.8c0,0.5-0.3,0.8-0.7,1c-0.4,0.3-39.6,23.3-40,23.5
			c-1,0.5-2.3,0.5-3.3,0c-0.4-0.3-39.7-23.3-40.1-23.5s-0.7-0.5-0.7-0.9v-0.1H422v-72l84.9,0.1L506.8,368.8L506.8,368.8z"></path>
			<path class="localized-peering-st18" d="M464.3,273.1c-0.6,0-1.2,0.1-1.7,0.4c-0.3,0.3-39.5,22.9-39.9,23
			c-0.4,0.2-0.7,0.5-0.7,0.9l0,0c0,0.4,0.3,0.8,0.7,0.9c0.4,0.3,39.6,22.9,40,23c1,0.5,2.3,0.5,3.3,0c0.4-0.3,39.6-22.9,40-23
			c0.4-0.2,0.7-0.5,0.7-0.9l0,0c0-0.4-0.3-0.8-0.7-0.9c-0.4-0.3-39.6-22.9-40-23C465.5,273.3,464.9,273.1,464.3,273.1"></path>
		</g>
		<g class="localized-peering__block	animation-element" data-animation-block="" style="transform: translateY(0px); opacity: 1;">
			<polygon class="localized-peering-st19" points="5,363.8 5,409 89.6,409 89.6,363.8		"></polygon>
			<path class="localized-peering-st20" d="M89.5,367.5L89.5,367.5c0,0.5-0.3,0.8-0.7,1c-0.4,0.3-39.4,23.2-39.9,23.4
			c-1,0.5-2.3,0.5-3.3,0c-0.4-0.3-39.5-23.2-39.9-23.4c-0.4-0.2-0.7-0.5-0.7-0.9v-0.1H5v-71.7l84.6,0.1L89.5,367.5L89.5,367.5z"></path>
			<path class="localized-peering-st21" d="M47.1,272.2c-0.6,0-1.2,0.1-1.7,0.4c-0.3,0.3-39.4,22.8-39.8,22.9C5.3,295.7,5,296,5,296.5l0,0c0,0.4,0.3,0.8,0.7,0.9c0.4,0.3,39.4,22.8,39.9,22.9c1,0.5,2.3,0.5,3.3,0c0.4-0.3,39.4-22.8,39.9-22.9c0.4-0.2,0.7-0.5,0.7-0.9l0,0c0-0.4-0.3-0.8-0.7-0.9c-0.4-0.3-39.4-22.8-39.9-22.9C48.3,272.4,47.7,272.2,47.1,272.2"></path>
		</g>
	</g>
	<g class="localized-peering__pins">
		<g class="localized-peering__pin animation-element" data-animation-pin="" style="transform: translateY(0px); opacity: 1;">
			<path class="localized-peering-st5" d="M40.4,294.1c3.1-1.6,6.8-1.6,10,0c2.8,1.6,2.8,4.2,0,5.8c-3.1,1.6-6.8,1.6-10,0C37.6,298.3,37.6,295.7,40.4,294.1z"></path>
			<path class="localized-peering-st22" d="M45,257.4c8.3,0,15,6.7,15,15l0,0c0,8.3-10.3,25-15,25c-4.5,0-15-16.7-15-25C30,264.2,36.7,257.4,45,257.4L45,257.4z"></path>
		</g>
		<g class="localized-peering__pin animation-element" data-animation-pin="" style="transform: translateY(0px); opacity: 1;">
			<path class="localized-peering-st5" d="M40.4,47.1c3.1-1.6,6.8-1.6,10,0c2.8,1.6,2.8,4.2,0,5.8c-3.1,1.6-6.8,1.6-10,0C37.6,51.3,37.6,48.7,40.4,47.1z"></path>
			<path class="localized-peering-st23" d="M45,10.4c8.3,0,15,6.7,15,15l0,0c0,8.3-10.3,25-15,25c-4.5,0-15-16.7-15-25C30,17.2,36.7,10.4,45,10.4L45,10.4z"></path>
		</g>
		<g class="localized-peering__pin animation-element" data-animation-pin="" style="transform: translateY(0px); opacity: 1;">
			<path class="localized-peering-st5" d="M460.4,294.1c3.1-1.6,6.8-1.6,10,0c2.8,1.6,2.8,4.2,0,5.8
			c-3.1,1.6-6.8,1.6-10,0C457.6,298.3,457.6,295.7,460.4,294.1z"></path>
			<path class="localized-peering-st24" d="M465,257.4c8.3,0,15,6.7,15,15c0,8.3-10.3,25-15,25c-4.5,0-15-16.7-15-25
			C450,264.2,456.7,257.4,465,257.4z"></path>
		</g>
		<g class="localized-peering__pin animation-element" data-animation-pin="" style="transform: translateY(0px); opacity: 1;">
			<path class="localized-peering-st5" d="M460.4,47.1c3.1-1.6,6.8-1.6,10,0c2.8,1.6,2.8,4.2,0,5.8
			c-3.1,1.6-6.8,1.6-10,0C457.6,51.3,457.6,48.7,460.4,47.1z"></path>
			<path class="localized-peering-st25" d="M465,10.4c8.3,0,15,6.7,15,15c0,8.3-10.3,25-15,25c-4.5,0-15-16.7-15-25
			C450,17.2,456.7,10.4,465,10.4z"></path>
		</g>
	</g>
	<defs>
		<linearGradient id="localized-peering-gradinet-1">
			<stop offset="0" style="stop-color:#CAD1E0"></stop>
			<stop offset="0.48" style="stop-color:#BEC5D8"></stop>
			<stop offset="0.52" style="stop-color:#D4D9E6"></stop>
			<stop offset="1" style="stop-color:#E4E7F0"></stop>
		</linearGradient>
		<linearGradient id="localized-peering-gradinet-3" gradientUnits="userSpaceOnUse" x1="422" y1="31.4166" x2="506.6618" y2="31.4166" gradientTransform="matrix(1 0 0 1 0 18)">
			<stop offset="0" style="stop-color:#EAEDF6"></stop>
			<stop offset="1" style="stop-color:#F6F8FE"></stop>
		</linearGradient>
		<linearGradient id="localized-peering-gradinet-4" gradientUnits="userSpaceOnUse" x1="47.5" y1="-17.9865" x2="47.5" y2="-63.4321" gradientTransform="matrix(1 0 0 -1 0 98)">
			<stop offset="0" style="stop-color:#CFD4E2"></stop>
			<stop offset="0.7" style="stop-color:#CFD4E2;stop-opacity:0"></stop>
		</linearGradient>
		<linearGradient id="localized-peering-gradinet-5" gradientUnits="userSpaceOnUse" x1="5" y1="30.3021" x2="89.7475" y2="30.3021" gradientTransform="matrix(1 0 0 1 0 18)">
			<stop offset="0" style="stop-color:#EAEDF6"></stop>
			<stop offset="1" style="stop-color:#F6F8FE"></stop>
		</linearGradient>
		<linearGradient id="localized-peering-gradinet-6" gradientUnits="userSpaceOnUse" x1="464.457" y1="-267.0992" x2="464.457" y2="-312.4987" gradientTransform="matrix(1 0 0 -1 0 98)">
			<stop offset="0" style="stop-color:#CFD4E2"></stop>
			<stop offset="0.7" style="stop-color:#CFD4E2;stop-opacity:0"></stop>
		</linearGradient>
		<linearGradient id="localized-peering-gradinet-7" gradientUnits="userSpaceOnUse" x1="422" y1="279.4833" x2="506.6618" y2="279.4833" gradientTransform="matrix(1 0 0 1 0 18)">
			<stop offset="0" style="stop-color:#EAEDF6"></stop>
			<stop offset="1" style="stop-color:#F6F8FE"></stop>
		</linearGradient>
		<linearGradient id="localized-peering-gradinet-8" gradientUnits="userSpaceOnUse" x1="47.2838" y1="-265.7856" x2="47.2838" y2="-311" gradientTransform="matrix(1 0 0 -1 0 98)">
			<stop offset="0" style="stop-color:#CFD4E2"></stop>
			<stop offset="0.7" style="stop-color:#CFD4E2;stop-opacity:0"></stop>
		</linearGradient>
		<linearGradient id="localized-peering-gradinet-9" gradientUnits="userSpaceOnUse" x1="5" y1="278.4456" x2="89.3164" y2="278.4456" gradientTransform="matrix(1 0 0 1 0 18)">
			<stop offset="0" style="stop-color:#EAEDF6"></stop>
			<stop offset="1" style="stop-color:#F6F8FE"></stop>
		</linearGradient>
		<linearGradient id="localized-peering-gradinet-10" gradientUnits="userSpaceOnUse" x1="464.457" y1="-19.0325" x2="464.457" y2="-64.4321" gradientTransform="matrix(1 0 0 -1 0 98)">
			<stop offset="0" style="stop-color:#CFD4E2"></stop>
			<stop offset="0.7" style="stop-color:#CFD4E2;stop-opacity:0"></stop>
		</linearGradient>
		<linearGradient id="localized-peering-gradinet-11" gradientUnits="userSpaceOnUse" x1="233.2805" y1="251.585" x2="286.0875" y2="343.0494" gradientTransform="matrix(1 0 0 -1 0 432)">
			<stop offset="1.000000e-02" style="stop-color:#BDC3D5"></stop>
			<stop offset="1" style="stop-color:#E4E8EF"></stop>
		</linearGradient>
		<linearGradient id="localized-peering-gradinet-12" gradientUnits="userSpaceOnUse" x1="230.0459" y1="277.7333" x2="297.8818" y2="160.238">
			<stop offset="1.000000e-02" style="stop-color:#353D6C"></stop>
			<stop offset="1" style="stop-color:#636F99"></stop>
		</linearGradient>
		<linearGradient id="localized-peering-gradinet-13" gradientUnits="userSpaceOnUse" x1="230.0968" y1="154.6057" x2="301.1957" y2="277.7524" gradientTransform="matrix(1 0 0 -1 0 432)">
			<stop offset="1.000000e-02" style="stop-color:#353D6C"></stop>
			<stop offset="1" style="stop-color:#636F99"></stop>
		</linearGradient>
		<linearGradient id="localized-peering-gradinet-14" gradientUnits="userSpaceOnUse" x1="258.8969" y1="238.6337" x2="258.8969" y2="318.761">
			<stop offset="1.000000e-02" style="stop-color:#353D6C"></stop>
			<stop offset="0.7" style="stop-color:#636F99;stop-opacity:0"></stop>
		</linearGradient>
		<linearGradient id="localized-peering-gradinet-2">
			<stop offset="0" style="stop-color:#0397F6"></stop>
			<stop offset="1" style="stop-color:#00BAFF"></stop>
		</linearGradient>
		<style type="text/css">
			.localized-peering-st0 {
				fill-rule: evenodd;
				clip-rule: evenodd;
				fill: none;
				stroke: #007BFC;
			}
			.localized-peering-st1 {
				fill: none;
				stroke: #007BFC;
			}
			.localized-peering-st2 {
				opacity: 0.16;
				fill: url(#localized-peering-gradinet-14);
			}
			.localized-peering-st3 {
				display: none;
				fill: url(#localized-peering-gradinet-13);
			}
			.localized-peering-st4 {
				fill: #F0F1F5;
			}
			.localized-peering-st5 {
				fill: #007BFC;
			}
			.localized-peering-st6 {
				opacity: 0.1;
				enable-background: new;
			}
			.localized-peering-st7 {
				fill-rule: evenodd;
				clip-rule: evenodd;
				fill: url(#localized-peering-gradinet-12);
			}
			.localized-peering-st8 {
				fill: #FFFFFF;
			}
			.localized-peering-st9 {
				fill: url(#localized-peering-gradinet-11);
			}
			.localized-peering-st10 {
				opacity: 0.32;
				fill: url(#localized-peering-gradinet-10);
				enable-background: new;
			}
			.localized-peering-st11 {
				fill: url(#localized-peering-gradinet-1);
			}
			.localized-peering-st12 {
				fill: url(#localized-peering-gradinet-3);
			}
			.localized-peering-st13 {
				opacity: 0.32;
				fill: url(#localized-peering-gradinet-4);
				enable-background: new;
			}
			.localized-peering-st14 {
				fill: url(#localized-peering-gradinet-1);
			}
			.localized-peering-st15 {
				fill: url(#localized-peering-gradinet-5);
			}
			.localized-peering-st16 {
				opacity: 0.32;
				fill: url(#localized-peering-gradinet-6);
				enable-background: new;
			}
			.localized-peering-st17 {
				fill: url(#localized-peering-gradinet-1);
			}
			.localized-peering-st18 {
				fill: url(#localized-peering-gradinet-7);
			}
			.localized-peering-st19 {
				opacity: 0.32;
				fill: url(#localized-peering-gradinet-8);
				enable-background: new;
			}
			.localized-peering-st20 {
				fill: url(#localized-peering-gradinet-1);
			}
			.localized-peering-st21 {
				fill: url(#localized-peering-gradinet-9);
			}
			.localized-peering-st22 {
				fill: url(#localized-peering-gradinet-2);
			}
			.localized-peering-st23 {
				fill: url(#localized-peering-gradinet-2);
			}
			.localized-peering-st24 {
				fill: url(#localized-peering-gradinet-2);
			}
			.localized-peering-st25 {
				fill: url(#localized-peering-gradinet-2);
			}
		</style>
	</defs>
</svg>