<svg class="svg-illustration svg-illustration--automate-scaling" style="overflow: visible" data-animation="" data-animation-options="type:automatedScaling;" xmlns="http://www.w3.org/2000/svg" x="0px" y="0px" viewBox="0 0 512 432">
	<g class="automate-scaling__circle">
		<path data-animation-arrow-bottom="" style="stroke-dashoffset: 0px; stroke-dasharray: 1093.06px;" class="automate-scaling__scale-st0" d="M82.4,353.9c78.9,34.9,183.4,31.9,255.9-9.9c69.9-40.3,75.5-103.6,16.6-147.5 M308.3,171.5c-75.5-28.9-178.4-24.1-245,14.3c-68.6,39.5-73,99.4-24.4,141.3"></path>
		<path data-animation-arrow-top="" style="stroke-dashoffset: 0px; stroke-dasharray: 46.139px;" class="automate-scaling__scale-st0" d="M46.3,309.9l-6,18l-27-3"></path>
		<path data-animation-arrow-top="" style="stroke-dashoffset: 0px; stroke-dasharray: 46.139px;" class="automate-scaling__scale-st0" d="M348.3,213.6l6-17.7l27,6"></path>
	</g>
	<g class="automate-scaling__server animation-element" data-animation-block="" style="transform: translateY(0px); opacity: 1;">
		<path class="automate-scaling__scale-st1" d="M6,128h100v60H6C6,188,5.6,128,6,128z"></path>
		<path class="automate-scaling__scale-st2" d="M106,127.6L106,127.6C105.9,127.7,105.9,127.7,106,127.6c-0.1,0.6-0.4,1-0.9,1.2c-0.5,0.3-46.7,27.4-47.2,27.6c-1.2,0.6-2.7,0.6-3.9,0c-0.5-0.3-46.7-27.4-47.2-27.6c-0.5-0.2-0.8-0.6-0.8-1.1v0.3l0,0v-22
		l100,0.1V127.6z"></path>
		<path id="Kształt_990_kopia_12" class="automate-scaling__scale-st3" d="M56.3,77.9c-0.7,0-1.4,0.1-2,0.5c-0.5,0.3-46.7,27.1-47.2,27.4c-0.5,0.2-0.8,0.6-0.8,1.1l0,0c0,0.5,0.4,0.9,0.8,1.1c0.5,0.3,46.7,27.1,47.2,27.4c1.2,0.6,2.7,0.6,3.9,0c0.5-0.3,46.7-27.1,47.2-27.4c0.5-0.2,0.8-0.6,0.8-1.1l0,0c0-0.5-0.4-0.9-0.8-1.1c-0.5-0.3-46.7-27.1-47.2-27.4C57.6,78,57,77.9,56.3,77.9"></path>
	</g>
	<g class="automate-scaling__scale">
		<g class="automate-scaling__scale-bottom animation-element" data-animation-scale-bottom="" style="transform: translateY(0px); opacity: 1;">
			<polygon class="automate-scaling__scale-st4" points="303.2,274.8 103.3,274.8 103.3,396.9 302.9,396.7"></polygon>
			<path class="automate-scaling__scale-st5" d="M303.3,274.9c-0.1,1-0.7,1.9-1.6,2.3c-1,0.5-93.4,54.2-94.4,54.8c-2.5,1.3-5.4,1.3-7.9,0c-1-0.5-93.4-54.2-94.4-54.8c-0.9-0.4-1.6-1.3-1.6-2.3l0,0v-116l199.9,0.2v115.6
			C303.2,274.8,303.3,274.9,303.3,274.9z"></path>
			<path class="automate-scaling__scale-st6" d="M203.5,101.8c-1.4,0-2.7,0.3-3.9,0.9c-1,0.6-93.7,54.2-94.7,54.8c-0.9,0.4-1.5,1.3-1.6,2.3l0,0c0.1,1,0.7,1.9,1.6,2.3c1,0.5,93.7,54.1,94.7,54.7c2.5,1.3,5.4,1.3,7.9,0
			c1-0.5,93.7-54.1,94.7-54.7c0.9-0.4,1.5-1.3,1.6-2.3l0,0c-0.1-1-0.7-1.9-1.6-2.3c-1-0.5-93.7-54.1-94.7-54.7C206.2,102.1,204.8,101.8,203.5,101.8"></path>
		</g>
		<g class="automate-scaling__scale-top animation-element" data-animation-scale-top="" style="transform: translateY(0px); opacity: 1;">
			<path class="automate-scaling__scale-st7" d="M302.9,95.5c-0.1,1-0.7,1.9-1.6,2.3c-1,0.5-93.4,54.7-94.4,55.2c-2.5,1.3-5.4,1.3-7.9,0c-1-0.5-93.4-54.7-94.4-55.2c-0.9-0.4-1.6-1.3-1.6-2.3c0-0.2,0.1-0.4,0.1-0.5H103V58l200,0.2V95h-0.1C302.8,95.2,302.8,95.3,302.9,95.5z"></path>
			<path class="automate-scaling__scale-st8" d="M203.3,0.9c-1.4,0-2.7,0.3-3.9,0.9c-1,0.6-93.4,53.8-94.4,54.4c-0.9,0.4-1.5,1.3-1.6,2.3l0,0c0.1,1,0.7,1.9,1.6,2.3c1,0.5,93.4,53.7,94.4,54.3c2.5,1.3,5.4,1.3,7.9,0
			c1-0.5,93.4-53.7,94.4-54.3c0.9-0.4,1.5-1.3,1.6-2.3l0,0c-0.1-1-0.7-1.9-1.6-2.3c-1-0.5-93.4-53.7-94.4-54.3C206,1.2,204.7,0.9,203.3,0.9"></path>
		</g>
		<g class="automate-scaling__scale-arrows animation-element" data-animation-scale-arrows="" style="transform: translateY(0px); opacity: 1;">
			<path class="automate-scaling__scale-st0" d="M136.3,151.9v-22"></path>
			<path class="automate-scaling__scale-st0" d="M144.6,146.7l-7.8,6.7l-7.8-10.6"></path>
			<path class="automate-scaling__scale-st0" d="M274.3,153.9v-22"></path>
			<path class="automate-scaling__scale-st0" d="M281.6,147.7l-7.8,6.7l-7.8-10.6"></path>
			<path class="automate-scaling__scale-st0" d="M202.3,187.9v-22"></path>
			<path class="automate-scaling__scale-st0" d="M210.3,181.9l-8,7l-8-11"></path>
		</g>
	</g>
	<g class="automate-scaling__browser animation-element" data-animation-browser="" style="transform: translateY(0px); opacity: 1;">
		<path class="automate-scaling__scale-st9" d="M338,408l164.4-94.9c2.1-1.2,3.8-0.5,3.8,1.6v47.1c-0.2,2.5-1.6,4.7-3.8,6l-104.1,63.1l-64.1,0.2V414C334.5,411.5,335.9,409.3,338,408z"></path>
		<path class="automate-scaling__scale-st10" d="M338,264l164.4-94.9c2.1-1.2,3.8-0.5,3.8,1.6v137.1c-0.2,2.5-1.6,4.7-3.8,6L338,408.7c-2.1,1.2-3.8,0.5-3.8-1.6V270C334.5,267.5,335.9,265.3,338,264z"></path>
		<path class="automate-scaling__scale-st11" d="M412,278.9l-20.1,34.8l19.4,11.2"></path>
		<path class="automate-scaling__scale-st11" d="M446.1,301.1l20-35.1l-19.3-11.3"></path>
		<path class="automate-scaling__scale-st11" d="M436.3,257.9l-14,65"></path>
		<path class="automate-scaling__scale-st12" d="M334.2,280.9V270c0.2-2.5,1.6-4.7,3.8-6l164.4-94.9c2.1-1.2,3.8-0.5,3.8,1.6v12.1L334.2,280.9z"></path>
		<path class="automate-scaling__scale-st13" d="M497.1,177.6c-1.3,0.9-2.1,2.3-2.2,3.8c-0.1,0.7,0.3,1.4,1.1,1.6c0.4,0.1,0.8,0,1.1-0.3c1.3-0.8,2.1-2.3,2.2-3.8c0.1-0.7-0.3-1.4-1.1-1.6C497.8,177.2,497.4,177.4,497.1,177.6z M490.8,181.3c-1.3,0.9-2.1,2.3-2.2,3.8c-0.1,0.7,0.3,1.4,1.1,1.6c0.4,0.1,0.8,0,1.2-0.3c1.3-0.8,2.1-2.3,2.2-3.8c0.1-0.7-0.3-1.4-1.1-1.6
		C491.5,180.9,491.1,181,490.8,181.3L490.8,181.3z M484.5,184.9c-1.3,0.9-2.1,2.3-2.2,3.8c-0.1,0.7,0.3,1.4,1,1.6c0.4,0.1,0.8,0,1.2-0.3c1.3-0.8,2.1-2.3,2.2-3.8c0.1-0.7-0.3-1.4-1.1-1.6C485.2,184.5,484.8,184.6,484.5,184.9L484.5,184.9z"></path>
	</g>
	<g class="automate-scaling__block animation-element" data-animation-block="" style="transform: translateY(0px); opacity: 1;">
		<polygon class="automate-scaling__scale-st14" points="356,134 356,188 457,188 457,134"></polygon>
		<path class="automate-scaling__scale-st15" d="M456.9,138.4L456.9,138.4c0,0.6-0.4,1-0.8,1.2c-0.5,0.3-47.1,27.7-47.6,27.9c-1.2,0.6-2.7,0.6-3.9,0c-0.5-0.3-47.2-27.7-47.7-27.9c-0.5-0.2-0.8-0.6-0.8-1.1v-0.1h-0.1V52.8L457,52.9L456.9,138.4L456.9,138.4z"></path>
		<path class="automate-scaling__scale-st16" d="M406.3,24.6c-0.7,0-1.4,0.1-2,0.5c-0.4,0.3-47,27.2-47.5,27.4c-0.5,0.2-0.8,0.6-0.8,1.1l0,0c0,0.5,0.4,0.9,0.8,1.1c0.5,0.3,47.1,27.2,47.6,27.4c1.2,0.6,2.7,0.6,3.9,0
		c0.5-0.3,47.1-27.2,47.6-27.4c0.5-0.2,0.8-0.6,0.8-1.1l0,0c0-0.5-0.4-0.9-0.8-1.1c-0.5-0.3-47.1-27.2-47.6-27.4C407.7,24.8,407,24.6,406.3,24.6"></path>
	</g>
	<defs>

		<linearGradient id="svg-gradient__gray-middle" x1="0%" y1="0%" x2="100%" y2="0%">
	<stop offset="0" style="stop-color:#CAD1E0"></stop>
	<stop offset="0.46" style="stop-color:#BEC5D8"></stop>
	<stop offset="0.54" style="stop-color:#D4D9E6"></stop>
	<stop offset="1" style="stop-color:#E4E7F0"></stop>
</linearGradient>
		<linearGradient id="svg-gradient__gray-top-dark" x1="0%" y1="0%" x2="100%" y2="0%">
	<stop offset="0" style="stop-color:#99A1BE"></stop>
	<stop offset="1" style="stop-color:#B3BACF"></stop>
</linearGradient>
		<linearGradient id="svg-gradient__gray-top-light" x1="0%" y1="0%" x2="100%" y2="0%">
	<stop offset="0" style="stop-color:#EAEDF6"></stop>
	<stop offset="1" style="stop-color:#F6F8FE"></stop>
</linearGradient>

		<linearGradient id="automate-scaling-gradient-1" gradientUnits="userSpaceOnUse" x1="55.9167" y1="128" x2="55.9167" y2="188">
			<stop offset="0" style="stop-color:#2A60E7"></stop>
			<stop offset="0.7" style="stop-color:#2A60E7;stop-opacity:0"></stop>
		</linearGradient>
		<linearGradient id="automate-scaling-gradient-2" gradientUnits="userSpaceOnUse" x1="6" y1="131.425" x2="106" y2="131.425">
			<stop offset="0" style="stop-color:#1D53DA"></stop>
			<stop offset="1" style="stop-color:#3F75FC"></stop>
		</linearGradient>
		<linearGradient id="automate-scaling-gradient-3" gradientUnits="userSpaceOnUse" x1="6.3" y1="106.875" x2="106.2" y2="106.875">
			<stop offset="0" style="stop-color:#0397F6"></stop>
			<stop offset="1" style="stop-color:#00BAFF"></stop>
		</linearGradient>
		<linearGradient id="automate-scaling-gradient-4" gradientUnits="userSpaceOnUse" x1="203.25" y1="159.2" x2="203.25" y2="37.1" gradientTransform="matrix(1 0 0 -1 0 434)">
			<stop offset="0" style="stop-color:#CFD4E2"></stop>
			<stop offset="0.7" style="stop-color:#CFD4E2;stop-opacity:0"></stop>
		</linearGradient>
		<linearGradient id="automate-scaling-gradient-7" gradientUnits="userSpaceOnUse" x1="103" y1="105.9875" x2="303" y2="105.9875">
			<stop offset="0" style="stop-color:#1D53DA"></stop>
			<stop offset="1" style="stop-color:#3F75FC"></stop>
		</linearGradient>
		<linearGradient id="automate-scaling-gradient-8" gradientUnits="userSpaceOnUse" x1="103.4" y1="58.4875" x2="303.3" y2="58.4875">
			<stop offset="0" style="stop-color:#0397F6"></stop>
			<stop offset="1" style="stop-color:#00BAFF"></stop>
		</linearGradient>
		<linearGradient id="automate-scaling-gradient-9" gradientUnits="userSpaceOnUse" x1="410.6598" y1="346.4076" x2="436.3693" y2="417.0439">
			<stop offset="0" style="stop-color:#CFD4E2"></stop>
			<stop offset="0.7" style="stop-color:#CFD4E2;stop-opacity:0"></stop>
		</linearGradient>
		<linearGradient id="automate-scaling-gradient-10" gradientUnits="userSpaceOnUse" x1="334.2" y1="145.1" x2="506.2" y2="145.1" gradientTransform="matrix(1 0 0 -1 0 434)">
			<stop offset="1.000000e-02" style="stop-color:#3F4B75"></stop>
			<stop offset="1" style="stop-color:#636F99"></stop>
		</linearGradient>
		<linearGradient id="automate-scaling-gradient-12" gradientUnits="userSpaceOnUse" x1="406.5" y1="467.965" x2="406.5" y2="522" gradientTransform="matrix(1 0 0 1 0 -334)">
			<stop offset="0" style="stop-color:#CFD4E2"></stop>
			<stop offset="0.7" style="stop-color:#CFD4E2;stop-opacity:0"></stop>
		</linearGradient>
		<style type="text/css">
			.automate-scaling__scale-st0 {
				fill: none;
				stroke: #007BFC;
			}
			.automate-scaling__scale-st1 {
				opacity: 0.32;
				fill-rule: evenodd;
				clip-rule: evenodd;
				fill: url(#automate-scaling-gradient-1);
				enable-background: new;
			}
			.automate-scaling__scale-st2 {
				fill-rule: evenodd;
				clip-rule: evenodd;
				fill: url(#automate-scaling-gradient-2);
			}
			.automate-scaling__scale-st3 {
				fill-rule: evenodd;
				clip-rule: evenodd;
				fill: url(#automate-scaling-gradient-3);
			}
			.automate-scaling__scale-st4 {
				opacity: 0.32;
				fill-rule: evenodd;
				clip-rule: evenodd;
				fill: url(#automate-scaling-gradient-4);
				enable-background: new;
			}
			.automate-scaling__scale-st5 {
				fill-rule: evenodd;
				clip-rule: evenodd;
				fill: url(#svg-gradient__gray-middle);
			}
			.automate-scaling__scale-st6 {
				fill-rule: evenodd;
				clip-rule: evenodd;
				fill: url(#svg-gradient__gray-top-light);
			}
			.automate-scaling__scale-st7 {
				fill-rule: evenodd;
				clip-rule: evenodd;
				fill: url(#automate-scaling-gradient-7);
			}
			.automate-scaling__scale-st8 {
				fill-rule: evenodd;
				clip-rule: evenodd;
				fill: url(#automate-scaling-gradient-8);
			}
			.automate-scaling__scale-st9 {
				opacity: 0.48;
				fill-rule: evenodd;
				clip-rule: evenodd;
				fill: url(#automate-scaling-gradient-9);
				enable-background: new;
			}
			.automate-scaling__scale-st10 {
				fill-rule: evenodd;
				clip-rule: evenodd;
				fill: url(#automate-scaling-gradient-10);
			}
			.automate-scaling__scale-st11 {
				fill: none;
				stroke: #FFFFFF;
				stroke-width: 4;
				stroke-linecap: round;
				stroke-linejoin: round;
			}
			.automate-scaling__scale-st12 {
				opacity: 0.18;
				fill-rule: evenodd;
				clip-rule: evenodd;
				enable-background: new;
			}
			.automate-scaling__scale-st13 {
				fill-rule: evenodd;
				clip-rule: evenodd;
				fill: #FFFFFF;
			}
			.automate-scaling__scale-st14 {
				opacity: 0.32;
				fill: url(#automate-scaling-gradient-12);
				enable-background: new;
			}
			.automate-scaling__scale-st15 {
				fill: url(#svg-gradient__gray-middle);
			}
			.automate-scaling__scale-st16 {
				fill: url(#svg-gradient__gray-top-light);
			}
		</style>
	</defs>
</svg>